<?xml version="1.0" encoding="UTF-8" standalone="no"?><svg xmlns="http://www.w3.org/2000/svg" xmlns:xlink="http://www.w3.org/1999/xlink" contentScriptType="application/ecmascript" contentStyleType="text/css" height="231px" preserveAspectRatio="none" style="width:1185px;height:231px;" version="1.1" viewBox="0 0 1185 231" width="1185px" zoomAndPan="magnify"><defs><filter height="300%" id="f1h2q7obf269v4" width="300%" x="-1" y="-1"><feGaussianBlur result="blurOut" stdDeviation="2.0"/><feColorMatrix in="blurOut" result="blurOut2" type="matrix" values="0 0 0 0 0 0 0 0 0 0 0 0 0 0 0 0 0 0 .4 0"/><feOffset dx="4.0" dy="4.0" in="blurOut2" result="blurOut3"/><feBlend in="SourceGraphic" in2="blurOut3" mode="normal"/></filter></defs><g><text fill="#000000" font-family="sans-serif" font-size="18" lengthAdjust="spacingAndGlyphs" textLength="285" x="454" y="16.708">"Messages - Sequence Diagram"</text><!--MD5=[f45b0905f5f080559f951a5055a36666]
entity MUA--><polygon fill="#FEFECE" filter="url(#f1h2q7obf269v4)" points="89.5,28.9531,89.5,90.8802,201.5,90.8802,201.5,38.9531,191.5,28.9531,89.5,28.9531" style="stroke: #000000; stroke-width: 1.5;"/><path d="M191.5,28.9531 L191.5,38.9531 L201.5,38.9531 " fill="#FEFECE" style="stroke: #000000; stroke-width: 1.5;"/><path d="M100.5,40.1198 L100.5,41.2865 L105.1667,43.6198 L109.8333,41.2865 L109.8333,40.1198 L100.5,40.1198 M100.5,42.4531 L100.5,47.1198 L109.8333,47.1198 L109.8333,42.4531 L105.1667,44.7865 L100.5,42.4531 " fill="#000000" style="stroke: ; stroke-width: 0.0; stroke-dasharray: ;"/><path d="M120.511,38.9893 L120.4375,39.0255 L116.0625,42.1241 L115.9167,42.3061 L115.7708,42.5978 C116.6097,42.865 117.2537,43.509 117.5208,44.3478 L117.8125,44.202 C117.8708,44.1786 117.9595,44.1145 117.9945,44.0561 L121.0932,39.6811 C121.1282,39.6345 121.1398,39.5458 121.0932,39.4991 L120.6195,39.0255 L120.5098,38.9893 M114.932,43.6198 C114.0803,43.6198 113.4002,44.3361 113.4002,45.1878 C113.4002,46.3428 112.7655,47.3123 111.8322,47.849 C112.2988,48.1173 112.8402,48.2865 113.4002,48.2865 C115.1268,48.2865 116.4988,46.9145 116.4988,45.1878 C116.4988,44.3361 115.7942,43.6198 114.9308,43.6198 " fill="#000000" style="stroke: ; stroke-width: 0.0; stroke-dasharray: ;"/><path d="M123.568,38.9531 A0.5833,0.5833 0 0 0 123.1667,39.5365 L123.1667,45.3698 A0.5833,0.5833 0 0 0 123.75,45.9531 L126.6667,45.9531 L126.6667,47.1198 L125.5,47.1198 C124.8583,47.1198 124.3333,47.6448 124.3333,48.2865 L131.3333,48.2865 C131.3333,47.6448 130.8083,47.1198 130.1667,47.1198 L129,47.1198 L129,45.9531 L131.9167,45.9531 A0.5833,0.5833 0 0 0 132.5,45.3698 L132.5,39.5365 A0.5833,0.5833 0 0 0 131.9167,38.9531 L123.75,38.9531 A0.5833,0.5833 0 0 0 123.6403,38.9531 A0.5833,0.5833 0 0 0 123.5668,38.9531 M124.3322,40.1198 L131.3322,40.1198 L131.3322,44.7865 L124.3322,44.7865 L124.3322,40.1198 " fill="#000000" style="stroke: ; stroke-width: 0.0; stroke-dasharray: ;"/><path d="M135.886,38.9531 C135.7577,38.9531 135.6667,39.043 135.6667,39.1725 L135.6667,48.0683 C135.6667,48.1966 135.7565,48.2876 135.886,48.2876 L141.2818,48.2876 C141.4102,48.2876 141.5012,48.1978 141.5012,48.0683 L141.5012,39.1725 C141.5012,39.0441 141.4113,38.9531 141.2818,38.9531 L135.886,38.9531 M136.8345,40.1198 L140.3345,40.1198 L140.3345,45.9531 L136.8345,45.9531 L136.8345,40.1198 M138.5845,46.5365 C138.9112,46.5365 139.1678,46.7931 139.1678,47.1198 C139.1678,47.4465 138.9112,47.7031 138.5845,47.7031 C138.2578,47.7031 138.0012,47.4465 138.0012,47.1198 C138.0012,46.7931 138.2578,46.5365 138.5845,46.5365 " fill="#000000" style="stroke: ; stroke-width: 0.0; stroke-dasharray: ;"/><path d="M150.5,38.9531 C149.2108,38.9531 148.1667,40.2586 148.1667,41.8698 C148.1667,43.481 149.2108,44.7865 150.5,44.7865 C151.7892,44.7865 152.8333,43.481 152.8333,41.8698 C152.8333,40.2586 151.7892,38.9531 150.5,38.9531 M148.057,44.7865 C146.8087,44.8331 145.8333,45.8598 145.8333,47.1198 L145.8333,48.2865 L155.1667,48.2865 L155.1667,47.1198 C155.1667,45.8598 154.1913,44.8331 152.943,44.7865 C152.313,45.4981 151.445,45.9531 150.5,45.9531 C149.555,45.9531 148.687,45.4981 148.057,44.7865 " fill="#000000" style="stroke: ; stroke-width: 0.0; stroke-dasharray: ;"/><path d="M163,38.9531 C162.4003,38.9531 161.8088,39.1876 161.3597,39.6461 L158.1152,42.8183 C156.8668,44.0666 156.8668,46.0908 158.1152,47.3391 C159.3635,48.5875 161.3877,48.5875 162.636,47.3391 L164.0943,45.8808 L163.2917,45.0781 L162.2347,46.099 L161.8333,46.5365 C161.0283,47.3415 159.7217,47.3415 158.9167,46.5365 C158.121,45.7408 158.1373,44.4621 158.9167,43.656 L162.1612,40.4838 L162.1612,40.4476 C162.615,39.9868 163.371,39.981 163.8388,40.4476 C164.2915,40.8921 164.2798,41.6213 163.8388,42.088 L160.9222,44.9685 C160.8113,45.0793 160.5955,45.0793 160.4847,44.9685 C160.3738,44.8576 160.3738,44.6418 160.4847,44.531 L160.9222,44.1296 L161.6152,43.4005 L160.8125,42.5978 L159.7917,43.6186 L159.682,43.7283 C159.1162,44.2941 159.1162,45.2041 159.682,45.77 C160.2478,46.3358 161.1578,46.3358 161.7237,45.77 L164.6403,42.9256 C165.5503,42.0156 165.5562,40.5445 164.6403,39.6438 C164.1853,39.1888 163.5985,38.9508 163,38.9508 " fill="#000000" style="stroke: ; stroke-width: 0.0; stroke-dasharray: ;"/><text fill="#000000" font-family="sans-serif" font-size="14" lengthAdjust="spacingAndGlyphs" textLength="76" x="99.5" y="61.2816">MUA (user)</text><text fill="#000000" font-family="sans-serif" font-size="14" lengthAdjust="spacingAndGlyphs" textLength="92" x="99.5" y="77.5785">Source Client</text><path d="M236.5,39.9531 L236.5,55.9531 L201.562,59.9531 L236.5,63.9531 L236.5,80.2188 A0,0 0 0 0 236.5,80.2188 L422.5,80.2188 A0,0 0 0 0 422.5,80.2188 L422.5,49.9531 L412.5,39.9531 L236.5,39.9531 A0,0 0 0 0 236.5,39.9531 " fill="#FBFB77" filter="url(#f1h2q7obf269v4)" style="stroke: #A80036; stroke-width: 1.0;"/><path d="M412.5,39.9531 L412.5,49.9531 L422.5,49.9531 L412.5,39.9531 " fill="#FBFB77" style="stroke: #A80036; stroke-width: 1.0;"/><text fill="#000000" font-family="sans-serif" font-size="13" lengthAdjust="spacingAndGlyphs" textLength="70" x="242.5" y="57.02">Mailclients:</text><text fill="#000000" font-family="sans-serif" font-size="13" lengthAdjust="spacingAndGlyphs" textLength="165" x="242.5" y="72.1528">Thunderbird, Outlook, etc.</text><!--MD5=[a6436292dd8096cf04bc54f0c8811b9e]
entity MSA--><rect fill="#FEFECE" filter="url(#f1h2q7obf269v4)" height="52.5938" style="stroke: #A80036; stroke-width: 1.5;" width="143" x="6" y="167.9531"/><text fill="#000000" font-family="sans-serif" font-size="14" lengthAdjust="spacingAndGlyphs" textLength="123" x="16" y="190.9482">MSA (submission)</text><text fill="#000000" font-family="sans-serif" font-size="14" lengthAdjust="spacingAndGlyphs" textLength="109" x="16" y="207.2451">Source Provider</text><!--MD5=[62b597605b6754c4c410ecc512517783]
entity MTA1--><path d="M207,172.9531 L356,172.9531 C361,172.9531 361,194.25 361,194.25 C361,194.25 361,215.5469 356,215.5469 L207,215.5469 C202,215.5469 202,194.25 202,194.25 C202,194.25 202,172.9531 207,172.9531 " fill="#FEFECE" filter="url(#f1h2q7obf269v4)" style="stroke: #A80036; stroke-width: 1.5;"/><path d="M356,172.9531 C351,172.9531 351,194.25 351,194.25 C351,215.5469 356,215.5469 356,215.5469 " fill="none" style="stroke: #A80036; stroke-width: 1.5;"/><text fill="#000000" font-family="sans-serif" font-size="14" lengthAdjust="spacingAndGlyphs" textLength="97" x="207" y="190.9482">MTA (transfer)</text><text fill="#000000" font-family="sans-serif" font-size="14" lengthAdjust="spacingAndGlyphs" textLength="139" x="207" y="207.2451">Destination Provider</text><!--MD5=[45dcc4549a6d1e9741fe1db7921650b6]
entity MTA2--><path d="M419,172.9531 L568,172.9531 C573,172.9531 573,194.25 573,194.25 C573,194.25 573,215.5469 568,215.5469 L419,215.5469 C414,215.5469 414,194.25 414,194.25 C414,194.25 414,172.9531 419,172.9531 " fill="#FEFECE" filter="url(#f1h2q7obf269v4)" style="stroke: #A80036; stroke-width: 1.5;"/><path d="M568,172.9531 C563,172.9531 563,194.25 563,194.25 C563,215.5469 568,215.5469 568,215.5469 " fill="none" style="stroke: #A80036; stroke-width: 1.5;"/><text fill="#000000" font-family="sans-serif" font-size="14" lengthAdjust="spacingAndGlyphs" textLength="97" x="419" y="190.9482">MTA (transfer)</text><text fill="#000000" font-family="sans-serif" font-size="14" lengthAdjust="spacingAndGlyphs" textLength="139" x="419" y="207.2451">Destination Provider</text><!--MD5=[c4966521f32f13fb57c165181c19b5c3]
entity MTA3--><path d="M631,172.9531 L780,172.9531 C785,172.9531 785,194.25 785,194.25 C785,194.25 785,215.5469 780,215.5469 L631,215.5469 C626,215.5469 626,194.25 626,194.25 C626,194.25 626,172.9531 631,172.9531 " fill="#FEFECE" filter="url(#f1h2q7obf269v4)" style="stroke: #A80036; stroke-width: 1.5;"/><path d="M780,172.9531 C775,172.9531 775,194.25 775,194.25 C775,215.5469 780,215.5469 780,215.5469 " fill="none" style="stroke: #A80036; stroke-width: 1.5;"/><text fill="#000000" font-family="sans-serif" font-size="14" lengthAdjust="spacingAndGlyphs" textLength="97" x="631" y="190.9482">MTA (transfer)</text><text fill="#000000" font-family="sans-serif" font-size="14" lengthAdjust="spacingAndGlyphs" textLength="139" x="631" y="207.2451">Destination Provider</text><path d="M615.5,39.9531 L615.5,80.2188 A0,0 0 0 0 615.5,80.2188 L701.5,80.2188 L705.5,172.8545 L709.5,80.2188 L795.5,80.2188 A0,0 0 0 0 795.5,80.2188 L795.5,49.9531 L785.5,39.9531 L615.5,39.9531 A0,0 0 0 0 615.5,39.9531 " fill="#FBFB77" filter="url(#f1h2q7obf269v4)" style="stroke: #A80036; stroke-width: 1.0;"/><path d="M785.5,39.9531 L785.5,49.9531 L795.5,49.9531 L785.5,39.9531 " fill="#FBFB77" style="stroke: #A80036; stroke-width: 1.0;"/><text fill="#000000" font-family="sans-serif" font-size="13" lengthAdjust="spacingAndGlyphs" textLength="159" x="621.5" y="57.02">Sendmail, Postfix, Qmail,</text><text fill="#000000" font-family="sans-serif" font-size="13" lengthAdjust="spacingAndGlyphs" textLength="155" x="625.5" y="72.1528">Exim, Postmaster, smail</text><!--MD5=[2476e468244d0daf0c350fb097042047]
entity MDA--><rect fill="#FEFECE" filter="url(#f1h2q7obf269v4)" height="52.5938" style="stroke: #A80036; stroke-width: 1.5;" width="159" x="838" y="167.9531"/><text fill="#000000" font-family="sans-serif" font-size="14" lengthAdjust="spacingAndGlyphs" textLength="98" x="848" y="190.9482">MDA (delivery)</text><text fill="#000000" font-family="sans-serif" font-size="14" lengthAdjust="spacingAndGlyphs" textLength="139" x="848" y="207.2451">Destination Provider</text><path d="M846.5,39.9531 L846.5,80.2188 A0,0 0 0 0 846.5,80.2188 L913.5,80.2188 L917.5,167.7941 L921.5,80.2188 L988.5,80.2188 A0,0 0 0 0 988.5,80.2188 L988.5,49.9531 L978.5,39.9531 L846.5,39.9531 A0,0 0 0 0 846.5,39.9531 " fill="#FBFB77" filter="url(#f1h2q7obf269v4)" style="stroke: #A80036; stroke-width: 1.0;"/><path d="M978.5,39.9531 L978.5,49.9531 L988.5,49.9531 L978.5,39.9531 " fill="#FBFB77" style="stroke: #A80036; stroke-width: 1.0;"/><text fill="#000000" font-family="sans-serif" font-size="13" lengthAdjust="spacingAndGlyphs" textLength="121" x="852.5" y="57.02">Procmail, Maildrop,</text><text fill="#000000" font-family="sans-serif" font-size="13" lengthAdjust="spacingAndGlyphs" textLength="97" x="856.5" y="72.1528">Cyrus, Dovecot</text><!--MD5=[9e7ad52b55339968835634433fa9fedf]
entity MRA--><rect fill="#FEFECE" filter="url(#f1h2q7obf269v4)" height="52.5938" style="stroke: #A80036; stroke-width: 1.5;" width="142" x="1032.5" y="167.9531"/><text fill="#000000" font-family="sans-serif" font-size="14" lengthAdjust="spacingAndGlyphs" textLength="99" x="1042.5" y="190.9482">MRA (retrieval)</text><text fill="#000000" font-family="sans-serif" font-size="14" lengthAdjust="spacingAndGlyphs" textLength="122" x="1042.5" y="207.2451">Destination Client</text><path d="M1035.5,39.9531 L1035.5,80.2188 A0,0 0 0 0 1035.5,80.2188 L1099.5,80.2188 L1103.5,167.7941 L1107.5,80.2188 L1171.5,80.2188 A0,0 0 0 0 1171.5,80.2188 L1171.5,49.9531 L1161.5,39.9531 L1035.5,39.9531 A0,0 0 0 0 1035.5,39.9531 " fill="#FBFB77" filter="url(#f1h2q7obf269v4)" style="stroke: #A80036; stroke-width: 1.0;"/><path d="M1161.5,39.9531 L1161.5,49.9531 L1171.5,49.9531 L1161.5,39.9531 " fill="#FBFB77" style="stroke: #A80036; stroke-width: 1.0;"/><text fill="#000000" font-family="sans-serif" font-size="13" lengthAdjust="spacingAndGlyphs" textLength="115" x="1041.5" y="57.02">fetchmail, getmail</text><text fill="#000000" font-family="sans-serif" font-size="13" lengthAdjust="spacingAndGlyphs" textLength="83" x="1041.5" y="72.1528">(IMAP, POP3)</text><!--MD5=[87b37a3c992131a84998ab32bd8f7b2c]
link MUA to MSA--><path d="M130.07,91.0191 C119.022,112.5471 104.2,141.4274 93.111,163.0346 " fill="none" id="MUA-&gt;MSA" style="stroke: #A80036; stroke-width: 1.0; stroke-dasharray: 7.0,7.0;"/><polygon fill="#A80036" points="90.8041,167.5296,98.4721,161.3489,93.0871,163.0813,91.3548,157.6962,90.8041,167.5296" style="stroke: #A80036; stroke-width: 1.0;"/><text fill="#000000" font-family="sans-serif" font-size="13" lengthAdjust="spacingAndGlyphs" textLength="24" x="115.5" y="134.02">587</text><!--MD5=[59160795327e2d07521f0481861a5b3e]
link MUA to MTA1--><path d="M176.361,91.0191 C200.512,114.5491 233.68,146.8639 256.261,168.8637 " fill="none" id="MUA-&gt;MTA1" style="stroke: #A80036; stroke-width: 1.0; stroke-dasharray: 7.0,7.0;"/><polygon fill="#A80036" points="260.07,172.5746,256.4159,163.4287,256.4891,169.0851,250.8327,169.1582,260.07,172.5746" style="stroke: #A80036; stroke-width: 1.0;"/><text fill="#000000" font-family="sans-serif" font-size="13" lengthAdjust="spacingAndGlyphs" textLength="16" x="223.5" y="134.02">25</text><!--MD5=[bc6826e5071fd1e86b9d7f40ca17f3b8]
link MSA to MTA1--><path d="M149.136,194.4531 C164.402,194.4531 180.665,194.4531 196.38,194.4531 " fill="none" id="MSA-&gt;MTA1" style="stroke: #A80036; stroke-width: 1.0;"/><polygon fill="#A80036" points="201.686,194.4531,192.686,190.4531,196.686,194.4531,192.686,198.4531,201.686,194.4531" style="stroke: #A80036; stroke-width: 1.0;"/><text fill="#000000" font-family="sans-serif" font-size="13" lengthAdjust="spacingAndGlyphs" textLength="16" x="167.5" y="187.52">25</text><!--MD5=[3cb2d1a43806fc24eba31f174e4478bf]
link MTA1 to MTA2--><path d="M361.044,194.4531 C376.561,194.4531 392.887,194.4531 408.571,194.4531 " fill="none" id="MTA1-&gt;MTA2" style="stroke: #A80036; stroke-width: 1.0;"/><polygon fill="#A80036" points="413.863,194.4531,404.863,190.4531,408.863,194.4531,404.863,198.4531,413.863,194.4531" style="stroke: #A80036; stroke-width: 1.0;"/><text fill="#000000" font-family="sans-serif" font-size="13" lengthAdjust="spacingAndGlyphs" textLength="16" x="379.5" y="187.52">25</text><!--MD5=[5b7a046d30d7b43de7fea13a10ee1ab4]
link MTA2 to MTA3--><path d="M573.044,194.4531 C588.561,194.4531 604.887,194.4531 620.571,194.4531 " fill="none" id="MTA2-&gt;MTA3" style="stroke: #A80036; stroke-width: 1.0;"/><polygon fill="#A80036" points="625.863,194.4531,616.863,190.4531,620.863,194.4531,616.863,198.4531,625.863,194.4531" style="stroke: #A80036; stroke-width: 1.0;"/><text fill="#000000" font-family="sans-serif" font-size="13" lengthAdjust="spacingAndGlyphs" textLength="16" x="591.5" y="187.52">25</text><!--MD5=[ab79c3f804478b5b7af97ba7ac6ece7a]
link MTA3 to MDA--><path d="M785.044,194.4531 C800.561,194.4531 816.887,194.4531 832.571,194.4531 " fill="none" id="MTA3-&gt;MDA" style="stroke: #A80036; stroke-width: 1.0;"/><polygon fill="#A80036" points="837.863,194.4531,828.863,190.4531,832.863,194.4531,828.863,198.4531,837.863,194.4531" style="stroke: #A80036; stroke-width: 1.0;"/><text fill="#000000" font-family="sans-serif" font-size="13" lengthAdjust="spacingAndGlyphs" textLength="16" x="803.5" y="187.52">25</text><!--MD5=[56860c2781b7b1cfcb1eba86925c6bf6]
link MDA to MRA--><path d="M997.059,194.4531 C1007.09,194.4531 1017.12,194.4531 1027.15,194.4531 " fill="none" id="MDA-&gt;MRA" style="stroke: #A80036; stroke-width: 1.0;"/><polygon fill="#A80036" points="1032.4,194.4531,1023.4,190.4531,1027.4,194.4531,1023.4,198.4531,1032.4,194.4531" style="stroke: #A80036; stroke-width: 1.0;"/><!--MD5=[08edfd6303a589bd2b8b3780eac574fb]
@startuml
title "Messages - Sequence Diagram"

file "<&envelope-closed><&brush><&monitor><&phone><&person><&paperclip>\nMUA (user)\nSource Client" as MUA
note right: Mailclients:\nThunderbird, Outlook, etc.
agent "MSA (submission)\nSource Provider" as MSA
queue "MTA (transfer)\nDestination Provider" as MTA1
queue "MTA (transfer)\nDestination Provider" as MTA2
queue "MTA (transfer)\nDestination Provider" as MTA3
note top: Sendmail, Postfix, Qmail,\n Exim, Postmaster, smail
agent "MDA (delivery)\nDestination Provider" as MDA
note top: Procmail, Maildrop,\n Cyrus, Dovecot
agent "MRA (retrieval)\nDestination Client" as MRA
note top: fetchmail, getmail\n(IMAP, POP3)


MUA ..> MSA : 587
MUA ..> MTA1 : 25
MSA -> MTA1 : 25
MTA1 -> MTA2 : 25
MTA2 -> MTA3 : 25
MTA3 -> MDA : 25
MDA -> MRA
@enduml

PlantUML version 1.2019.13(Tue Dec 10 17:18:29 UTC 2019)
(GPL source distribution)
Java Runtime: Java(TM) SE Runtime Environment
JVM: Java HotSpot(TM) 64-Bit Server VM
Java Version: 1.7.0_25-b15
Operating System: Linux
Default Encoding: UTF-8
Language: en
Country: US
--></g></svg>